# xmcd CD database file
#
# Track frame offsets:
#	150
#	17487
#	40097
#	65594
#	84829
#	108706
#	129567
#	153416
#	174325
#	188029
#	209319
#	235960
#
# Disc length: 3607 seconds
#
# Revision: 0
# Processed by: cddbd v1.5.1PL2 Copyright (c) Steve Scherf et al.
# Submitted via: CDex 1.51
#
DISCID=960e150c
DTITLE=The G.I.'s Old Timers - Live au Petit Journal st Michel
DYEAR=2003
DGENRE=Jazz
TTITLE0=Avalon
TTITLE1=After you've gone
TTITLE2=It had to be you
TTITLE3=Roses de Picardie
TTITLE4=Somebody stole my gal
TTITLE5=Please don't talk about me
TTITLE6=Doctor Jazz
TTITLE7=Am I blue
TTITLE8=Menilmontant
TTITLE9=Waiting for the Robert E. Lee
TTITLE10=Home
TTITLE11=Royal Garden blues
EXTD=YEAR: 2003
EXTT0=
EXTT1=
EXTT2=
EXTT3=
EXTT4=
EXTT5=
EXTT6=
EXTT7=
EXTT8=
EXTT9=
EXTT10=
EXTT11=
PLAYORDER=
